<svg width="61" height="60" viewBox="0 0 61 60" fill="none" xmlns="http://www.w3.org/2000/svg">
<path d="M30.5002 12C20.5603 12 12.5 20.2627 12.5 30.4557C12.5 38.6099 17.6576 45.5279 24.8096 47.9683C25.7092 48.1391 26.0395 47.5679 26.0395 47.0804C26.0395 46.6404 26.0228 45.1865 26.015 43.6444C21.0073 44.7608 19.9507 41.4668 19.9507 41.4668C19.1319 39.3336 17.9521 38.7664 17.9521 38.7664C16.3189 37.621 18.0752 37.6445 18.0752 37.6445C19.8827 37.7747 20.8344 39.5464 20.8344 39.5464C22.4399 42.3678 25.0454 41.5521 26.0725 41.0806C26.2341 39.8877 26.7006 39.0736 27.2154 38.6127C23.2173 38.146 19.0144 36.5635 19.0144 29.4918C19.0144 27.4768 19.7176 25.8305 20.869 24.538C20.6821 24.0732 20.066 22.196 21.0434 19.6539C21.0434 19.6539 22.5549 19.1579 25.9948 21.5457C27.4305 21.1368 28.9704 20.9317 30.5002 20.9247C32.0299 20.9317 33.5709 21.1368 35.0094 21.5457C38.445 19.1579 39.9545 19.6539 39.9545 19.6539C40.9342 22.196 40.3179 24.0732 40.131 24.538C41.2851 25.8305 41.9835 27.4768 41.9835 29.4918C41.9835 36.5803 37.7726 38.1411 33.7644 38.598C34.41 39.1707 34.9853 40.2939 34.9853 42.0158C34.9853 44.4851 34.9645 46.4725 34.9645 47.0804C34.9645 47.5716 35.2885 48.1471 36.2008 47.9658C43.349 45.5228 48.5 38.6071 48.5 30.4557C48.5 20.2627 40.441 12 30.5002 12Z" fill="#202020"/>
<rect x="1" y="0.5" width="59" height="59" rx="12.5" stroke="#E3E3E3"/>
</svg>
