<svg width="61" height="60" viewBox="0 0 61 60" fill="none" xmlns="http://www.w3.org/2000/svg">
<g clip-path="url(#clip0_6_100)">
<path d="M14.9545 43.5066H20.6818V29.5975L12.5 23.4611V41.052C12.5 42.4081 13.5984 43.5066 14.9545 43.5066Z" fill="#202020"/>
<path d="M40.3182 43.5066H46.0455C47.4016 43.5066 48.5 42.4081 48.5 41.052V23.4611L40.3182 29.5975V43.5066Z" fill="#202020"/>
<path d="M40.3182 18.9612V29.5976L48.5 23.4611V20.1884C48.5 17.155 45.037 15.4225 42.6091 17.243L40.3182 18.9612Z" fill="#202020"/>
<path fill-rule="evenodd" clip-rule="evenodd" d="M20.6818 29.5975V18.9611L30.5 26.3248L40.3182 18.9611V29.5975L30.5 36.9611L20.6818 29.5975Z" fill="#202020"/>
<path d="M12.5 20.1884V23.4611L20.6818 29.5976V18.9612L18.3909 17.243C15.963 15.4225 12.5 17.155 12.5 20.1884Z" fill="#202020"/>
</g>
<rect x="1" y="0.5" width="59" height="59" rx="12.5" stroke="#E3E3E3"/>
<defs>
<clipPath id="clip0_6_100">
<rect width="36" height="36" fill="white" transform="translate(12.5 12)"/>
</clipPath>
</defs>
</svg>
