<svg width="61" height="60" viewBox="0 0 61 60" fill="none" xmlns="http://www.w3.org/2000/svg">
<path fill-rule="evenodd" clip-rule="evenodd" d="M30.5017 12C25.6131 12 24.9996 12.0214 23.0796 12.1087C21.1633 12.1965 19.8554 12.4998 18.7108 12.945C17.5269 13.4047 16.5227 14.0197 15.5222 15.0206C14.5209 16.021 13.9058 17.0254 13.4446 18.2089C12.9984 19.3537 12.6946 20.6621 12.6084 22.5777C12.5225 24.4976 12.5 25.1116 12.5 30.0001C12.5 34.8887 12.5218 35.5003 12.6087 37.4204C12.6969 39.3367 13.0002 40.6446 13.445 41.7892C13.9051 42.9729 14.5201 43.9773 15.521 44.9778C16.5212 45.9791 17.5254 46.5956 18.7086 47.0553C19.8538 47.5004 21.1622 47.8038 23.0781 47.8916C24.9982 47.9789 25.6113 48.0003 30.4994 48.0003C35.3884 48.0003 36 47.9789 37.9201 47.8916C39.8362 47.8038 41.1457 47.5004 42.2911 47.0553C43.4746 46.5956 44.4773 45.9791 45.4774 44.9778C46.4787 43.9773 47.0938 42.9729 47.555 41.7894C47.9975 40.6446 48.3013 39.3362 48.3913 37.4206C48.4775 35.5007 48.5 34.8887 48.5 30.0001C48.5 25.1116 48.4775 24.498 48.3913 22.5781C48.3013 20.6618 47.9975 19.3537 47.555 18.2093C47.0938 17.0254 46.4787 16.021 45.4774 15.0206C44.4762 14.0194 43.4749 13.4043 42.29 12.945C41.1424 12.4998 39.8337 12.1965 37.9174 12.1087C35.9973 12.0214 35.3862 12 30.4961 12H30.5017ZM29.9014 15.2435L30.5017 15.2437C35.3077 15.2437 35.8774 15.261 37.7752 15.3472C39.5302 15.4275 40.4828 15.7207 41.1173 15.967C41.9573 16.2933 42.5562 16.6834 43.1858 17.3134C43.8158 17.9434 44.2059 18.5434 44.5328 19.3834C44.7792 20.0172 45.0728 20.9696 45.1527 22.7246C45.2389 24.6222 45.2578 25.1922 45.2578 29.9961C45.2578 34.7998 45.2389 35.3698 45.1527 37.2674C45.0724 39.0224 44.7792 39.9748 44.5328 40.6086C44.2066 41.4486 43.8158 42.0468 43.1858 42.6764C42.5558 43.3064 41.9577 43.6965 41.1173 44.0227C40.4835 44.2702 39.5302 44.5627 37.7752 44.6429C35.8778 44.7292 35.3077 44.7479 30.5017 44.7479C25.6953 44.7479 25.1256 44.7292 23.2281 44.6429C21.4731 44.5619 20.5205 44.2687 19.8858 44.0223C19.0457 43.696 18.4456 43.3059 17.8156 42.6759C17.1856 42.0459 16.7957 41.4474 16.4687 40.6071C16.2223 39.9734 15.9287 39.0208 15.8488 37.2658C15.7625 35.3684 15.7453 34.7983 15.7453 29.9916C15.7453 25.1847 15.7625 24.6177 15.8488 22.7201C15.929 20.9651 16.2223 20.0127 16.4687 19.3782C16.795 18.5381 17.1856 17.9382 17.8156 17.3082C18.4456 16.6782 19.0457 16.2881 19.8858 15.9611C20.5203 15.7136 21.4731 15.4211 23.2281 15.3404C24.8886 15.2655 25.5321 15.243 28.8869 15.2392V15.2437C29.2003 15.2432 29.5376 15.2434 29.9014 15.2435ZM37.95 20.3918C37.95 19.1989 38.9175 18.2325 40.11 18.2325C41.3025 18.2325 42.27 19.1993 42.27 20.3918C42.27 21.5843 41.3025 22.5518 40.11 22.5518C38.9175 22.5518 37.95 21.5843 37.95 20.3918ZM30.5013 20.7563C25.3966 20.7564 21.2578 24.8953 21.2578 30.0001C21.2578 35.1051 25.3967 39.2422 30.5017 39.2422C35.6067 39.2422 39.744 35.1051 39.744 30.0001C39.744 24.8952 35.6062 20.7563 30.5013 20.7563ZM36.5017 30.0001C36.5017 26.6862 33.8152 24.0001 30.5017 24.0001C27.1877 24.0001 24.5016 26.6862 24.5016 30.0001C24.5016 33.3137 27.1877 36.0002 30.5017 36.0002C33.8152 36.0002 36.5017 33.3137 36.5017 30.0001Z" fill="#202020"/>
<rect x="1" y="0.5" width="59" height="59" rx="12.5" stroke="#E3E3E3"/>
</svg>
