<svg width="20" height="20" viewBox="0 0 20 20" fill="none" xmlns="http://www.w3.org/2000/svg">
<g clip-path="url(#clip0_302_1105)">
<path d="M1.66675 9.99984C1.66675 14.6023 5.39758 18.3332 10.0001 18.3332C14.6026 18.3332 18.3334 14.6023 18.3334 9.99984C18.3334 5.39734 14.6026 1.6665 10.0001 1.6665C5.39758 1.6665 1.66675 5.39734 1.66675 9.99984Z" stroke="#2D2D2D" stroke-width="1.5" stroke-linecap="round" stroke-linejoin="round"/>
<path d="M10.8333 1.70801C10.8333 1.70801 13.3333 4.99967 13.3333 9.99967C13.3333 14.9997 10.8333 18.2913 10.8333 18.2913M9.16665 18.2913C9.16665 18.2913 6.66665 14.9997 6.66665 9.99967C6.66665 4.99967 9.16665 1.70801 9.16665 1.70801M2.19165 12.9163H17.8083M2.19165 7.08301H17.8083" stroke="#2D2D2D" stroke-width="1.5" stroke-linecap="round" stroke-linejoin="round"/>
</g>
<defs>
<clipPath id="clip0_302_1105">
<rect width="20" height="20" fill="white"/>
</clipPath>
</defs>
</svg>
