<svg width="38" height="38" viewBox="0 0 38 38" fill="none" xmlns="http://www.w3.org/2000/svg">
<path d="M26.0698 25.6279C25.3389 25.6279 24.7442 25.0331 24.7442 24.3023C24.7442 23.9475 24.8825 23.6143 25.133 23.3647L29.0559 19.4418L25.1326 15.5186C25.0091 15.3958 24.9112 15.2497 24.8446 15.0888C24.7779 14.928 24.7438 14.7555 24.7442 14.5814C24.7442 13.8505 25.3389 13.2558 26.0698 13.2558C26.4246 13.2558 26.7577 13.3941 27.0074 13.6446L31.8674 18.5047C32.118 18.7547 32.2558 19.0879 32.2558 19.4418C32.2558 19.7967 32.1175 20.1298 31.867 20.3795L27.007 25.2395C26.8843 25.3632 26.7383 25.4612 26.5774 25.5279C26.4165 25.5946 26.2439 25.6286 26.0698 25.6279Z" fill="#34C759"/>
<path fill-rule="evenodd" clip-rule="evenodd" d="M15.0233 29.1628C14.8051 29.1624 14.5904 29.1083 14.3981 29.0052C14.2058 28.9021 14.0419 28.7532 13.9209 28.5717C13.7999 28.3902 13.7255 28.1816 13.7043 27.9645C13.6831 27.7474 13.7157 27.5284 13.7993 27.3268L21.7532 9.65154C21.854 9.41014 22.0239 9.20397 22.2416 9.05905C22.4594 8.91412 22.7152 8.83692 22.9767 8.83719C23.1949 8.83753 23.4096 8.89165 23.6019 8.99474C23.7942 9.09784 23.9581 9.24673 24.0791 9.42826C24.2001 9.60978 24.2745 9.81833 24.2957 10.0355C24.3169 10.2526 24.2843 10.4716 24.2007 10.6731L16.2468 28.3484C16.1461 28.5898 15.9761 28.796 15.7584 28.9409C15.5406 29.0858 15.2848 29.163 15.0233 29.1628Z" fill="#202020"/>
<path d="M11.9302 25.186C11.756 25.1866 11.5834 25.1525 11.4224 25.0857C11.2614 25.019 11.1153 24.9209 10.9926 24.7972L6.13258 19.9372C5.88249 19.688 5.74419 19.3548 5.74419 19C5.74419 18.6452 5.88249 18.312 6.13302 18.0624L10.993 13.2023C11.1157 13.0787 11.2618 12.9808 11.4227 12.9141C11.5835 12.8474 11.7561 12.8134 11.9302 12.8139C12.6611 12.8139 13.2558 13.4087 13.2558 14.1395C13.2558 14.4943 13.1175 14.8275 12.867 15.0771L8.94414 19L12.8674 22.9233C13.118 23.1725 13.2558 23.5056 13.2558 23.8604C13.2558 24.5913 12.6611 25.186 11.9302 25.186Z" fill="#34C759"/>
<rect x="0.883721" y="0.883721" width="36.2326" height="36.2326" rx="12.3721" stroke="#202020" stroke-width="1.76744"/>
</svg>
