<svg width="61" height="60" viewBox="0 0 61 60" fill="none" xmlns="http://www.w3.org/2000/svg">
<path d="M13.0437 28.8687C16.7266 26.84 20.8377 25.1469 24.679 23.4451C31.2873 20.6577 37.922 17.9186 44.6236 15.3686C45.9275 14.9341 48.2703 14.5092 48.5 16.4415C48.3742 19.1766 47.8568 21.8957 47.5018 24.6149C46.6009 30.5945 45.5597 36.5536 44.5443 42.5135C44.1945 44.4987 41.7076 45.5264 40.1163 44.256C36.2921 41.6729 32.4386 39.1149 28.6633 36.472C27.4266 35.2153 28.5733 33.4107 29.6778 32.5134C32.8275 29.4094 36.1678 26.7721 39.1529 23.5077C39.9581 21.5632 37.579 23.202 36.7943 23.7041C32.4823 26.6755 28.2759 29.8284 23.7297 32.4399C21.4076 33.7182 18.701 32.6257 16.3799 31.9124C14.2987 31.0508 11.2493 30.1825 13.0437 28.8687Z" fill="#202020"/>
<rect x="1" y="0.5" width="59" height="59" rx="12.5" stroke="#E3E3E3"/>
</svg>
